<svg width="300" height="300" viewBox="0 0 300 300" fill="none" xmlns="http://www.w3.org/2000/svg">
<rect width="300" height="300" fill="white"/>
<path d="M130.354 161.339H153.127C157.997 161.339 162.294 160.283 166.018 158.17C169.742 156.057 172.66 153.121 174.772 149.361C176.921 145.602 177.995 141.269 177.995 136.363V136.256C177.995 131.35 176.921 127.035 174.772 123.312C172.66 119.588 169.742 116.687 166.018 114.61C162.294 112.534 157.997 111.495 153.127 111.495H130.354V120.089H150.656C156.206 120.089 160.503 121.521 163.547 124.386C166.59 127.25 168.112 131.243 168.112 136.363V136.471C168.112 141.555 166.59 145.548 163.547 148.448C160.503 151.313 156.206 152.745 150.656 152.745H130.354V161.339ZM125.52 189H135.188V111.495H125.52V189Z" fill="black"/>
</svg>
